<svg width="80" height="88" viewBox="0 0 80 88" fill="none" xmlns="http://www.w3.org/2000/svg">
<path d="M35.5556 76.67V46.53L8.88889 31.24V61.38L35.5556 76.67ZM44.4444 76.67L71.1111 61.38V31.24L44.4444 46.53V76.67ZM35.5556 86.79L4.44444 69.08C3.03704 68.2733 1.94444 67.21 1.16667 65.89C0.388889 64.57 0 63.1033 0 61.49V26.51C0 24.8967 0.388889 23.43 1.16667 22.11C1.94444 20.79 3.03704 19.7267 4.44444 18.92L35.5556 1.21C36.963 0.403333 38.4444 0 40 0C41.5556 0 43.037 0.403333 44.4444 1.21L75.5556 18.92C76.963 19.7267 78.0556 20.79 78.8333 22.11C79.6111 23.43 80 24.8967 80 26.51V61.49C80 63.1033 79.6111 64.57 78.8333 65.89C78.0556 67.21 76.963 68.2733 75.5556 69.08L44.4444 86.79C43.037 87.5967 41.5556 88 40 88C38.4444 88 36.963 87.5967 35.5556 86.79ZM57.7778 28.71L66.3333 23.87L40 8.8L31.3333 13.75L57.7778 28.71ZM40 38.94L48.6667 33.99L22.3333 18.92L13.6667 23.87L40 38.94Z" fill="#9999FF"/>
</svg>
