<svg width="80" height="80" viewBox="0 0 80 80" fill="none" xmlns="http://www.w3.org/2000/svg">
<path d="M52.8 70L64 58.8V68H68V52H52V56H61.2L50 67.2L52.8 70ZM8 72C5.8 72 3.916 71.2173 2.348 69.652C0.782666 68.084 0 66.2 0 64V8C0 5.8 0.782666 3.916 2.348 2.348C3.916 0.782666 5.8 0 8 0H64C66.2 0 68.084 0.782666 69.652 2.348C71.2173 3.916 72 5.8 72 8V34.8C70.7333 34.2 69.4333 33.6827 68.1 33.248C66.7667 32.816 65.4 32.5 64 32.3V8H8V64H32.2C32.4 65.4667 32.7173 66.8667 33.152 68.2C33.584 69.5333 34.1 70.8 34.7 72H8ZM8 60V64V8V32.3V32V60ZM16 56H32.3C32.5 54.6 32.816 53.2333 33.248 51.9C33.6827 50.5667 34.1667 49.2667 34.7 48H16V56ZM16 40H40.4C42.5333 38 44.916 36.3333 47.548 35C50.1827 33.6667 53 32.7667 56 32.3V32H16V40ZM16 24H56V16H16V24ZM60 80C54.4667 80 49.7507 78.0507 45.852 74.152C41.9507 70.2507 40 65.5333 40 60C40 54.4667 41.9507 49.7493 45.852 45.848C49.7507 41.9493 54.4667 40 60 40C65.5333 40 70.2507 41.9493 74.152 45.848C78.0507 49.7493 80 54.4667 80 60C80 65.5333 78.0507 70.2507 74.152 74.152C70.2507 78.0507 65.5333 80 60 80Z" fill="#9999FF"/>
</svg>
