<svg width="80" height="80" viewBox="0 0 80 80" fill="none" xmlns="http://www.w3.org/2000/svg">
<path d="M40 80C28.8333 80 19.375 76.125 11.625 68.375C3.875 60.625 0 51.1667 0 40C0 28.8333 3.875 19.375 11.625 11.625C19.375 3.875 28.8333 0 40 0C45.75 0 51.25 1.18833 56.5 3.565C61.75 5.93833 66.25 9.33333 70 13.75V0H80V35H45V25H66C63.3333 20.3333 59.6883 16.6667 55.065 14C50.4383 11.3333 45.4167 10 40 10C31.6667 10 24.5833 12.9167 18.75 18.75C12.9167 24.5833 10 31.6667 10 40C10 48.3333 12.9167 55.4167 18.75 61.25C24.5833 67.0833 31.6667 70 40 70C46.4167 70 52.2083 68.1667 57.375 64.5C62.5417 60.8333 66.1667 56 68.25 50H78.75C76.4167 58.8333 71.6667 66.0417 64.5 71.625C57.3333 77.2083 49.1667 80 40 80Z" fill="#9999FF"/>
</svg>
