<svg width="89" height="67" viewBox="0 0 89 67" fill="none" xmlns="http://www.w3.org/2000/svg">
<path d="M88.1 25.26L82.34 7.98C81.22 4.7 78.18 2.5 74.74 2.5H72.5H71.3C70.8 2.5 69.8 2.5 67.8 2.5L65 2.50007C62.8 2.50007 63 2.50006 61 2.5L60.5 2.5H52.5C48.1 2.5 44.5 6.1 44.5 10.5V26.5H43V0.500061H38.5H0.5V26.5V46.5C0.5 50.9 4.1 54.5 8.5 54.5H12.5C12.5 61.14 17.86 66.5 24.5 66.5C31.14 66.5 36.5 61.14 36.5 54.5H52.5C52.5 61.14 57.86 66.5 64.5 66.5C71.14 66.5 76.5 61.14 76.5 54.5H88.5V27.78C88.5 26.94 88.38 26.1 88.1 25.26ZM52.5 10.5H74.74L80.06 26.5H52.5V10.5ZM24.5 58.5C22.3 58.5 20.5 56.7 20.5 54.5C20.5 52.3 22.3 50.5 24.5 50.5C26.7 50.5 28.5 52.3 28.5 54.5C28.5 56.7 26.7 58.5 24.5 58.5ZM33.38 46.5C31.18 44.06 28.06 42.5 24.5 42.5C20.94 42.5 17.82 44.06 15.62 46.5H33.38ZM64.5 58.5C62.3 58.5 60.5 56.7 60.5 54.5C60.5 52.3 62.3 50.5 64.5 50.5C66.7 50.5 68.5 52.3 68.5 54.5C68.5 56.7 66.7 58.5 64.5 58.5ZM73.38 46.5C71.18 44.06 68.02 42.5 64.5 42.5C60.98 42.5 57.82 44.06 55.62 46.5H52.5V34.5H80.5V46.5H73.38Z" fill="#9999FF"/>
</svg>
