<svg width="100" height="100" viewBox="0 0 100 100" fill="none" xmlns="http://www.w3.org/2000/svg">
<rect x="0.5" y="0.5" width="99" height="99" fill="white" stroke="black"/>
<path d="M18.4943 35.3622H15.8381C15.7623 34.9266 15.6226 34.5407 15.419 34.2045C15.2154 33.8636 14.9621 33.5748 14.6591 33.3381C14.3561 33.1013 14.0104 32.9238 13.6222 32.8054C13.2386 32.6823 12.8243 32.6207 12.3793 32.6207C11.5885 32.6207 10.8878 32.8196 10.277 33.2173C9.66619 33.6103 9.18797 34.188 8.84233 34.9503C8.49669 35.7079 8.32386 36.6335 8.32386 37.7273C8.32386 38.84 8.49669 39.7775 8.84233 40.5398C9.19271 41.2973 9.67093 41.8703 10.277 42.2585C10.8878 42.642 11.5862 42.8338 12.3722 42.8338C12.8078 42.8338 13.215 42.777 13.5938 42.6634C13.9773 42.545 14.3205 42.3722 14.6236 42.1449C14.9313 41.9176 15.1894 41.6383 15.3977 41.3068C15.6108 40.9754 15.7576 40.5966 15.8381 40.1705L18.4943 40.1847C18.3949 40.8759 18.1795 41.5246 17.848 42.1307C17.5213 42.7367 17.0928 43.2718 16.5625 43.7358C16.0322 44.1951 15.4119 44.5549 14.7017 44.8153C13.9915 45.071 13.2031 45.1989 12.3366 45.1989C11.0582 45.1989 9.91714 44.9029 8.91335 44.3111C7.90956 43.7192 7.11884 42.8646 6.54119 41.7472C5.96354 40.6297 5.67472 39.2898 5.67472 37.7273C5.67472 36.16 5.96591 34.8201 6.5483 33.7074C7.13068 32.59 7.92377 31.7353 8.92756 31.1435C9.93134 30.5516 11.0677 30.2557 12.3366 30.2557C13.1463 30.2557 13.8991 30.3693 14.5952 30.5966C15.2912 30.8239 15.9115 31.1577 16.456 31.598C17.0005 32.0336 17.4479 32.5687 17.7983 33.2031C18.1534 33.8329 18.3854 34.5526 18.4943 35.3622ZM23.3647 38.608V45H20.7937V30.4545H23.3079V35.9446H23.4357C23.6914 35.3291 24.0868 34.8437 24.6218 34.4886C25.1616 34.1288 25.8481 33.9489 26.6815 33.9489C27.439 33.9489 28.0996 34.1075 28.663 34.4247C29.2264 34.742 29.6621 35.206 29.9698 35.8168C30.2823 36.4276 30.4386 37.1733 30.4386 38.054V45H27.8675V38.4517C27.8675 37.7178 27.6781 37.1473 27.2994 36.7401C26.9253 36.3281 26.3997 36.1222 25.7227 36.1222C25.2681 36.1222 24.8609 36.2216 24.5011 36.4205C24.146 36.6146 23.8666 36.8963 23.663 37.2656C23.4641 37.6349 23.3647 38.0824 23.3647 38.608ZM33.0593 45V34.0909H35.5522V35.9091H35.6658C35.8647 35.2794 36.2056 34.794 36.6886 34.4531C37.1763 34.1075 37.7326 33.9347 38.3576 33.9347C38.4996 33.9347 38.6583 33.9418 38.8335 33.956C39.0134 33.9654 39.1625 33.982 39.2809 34.0057V36.3707C39.172 36.3329 38.9992 36.2997 38.7624 36.2713C38.5304 36.2382 38.3055 36.2216 38.0877 36.2216C37.619 36.2216 37.1976 36.3234 36.8235 36.527C36.4542 36.7259 36.163 37.0028 35.9499 37.358C35.7369 37.7131 35.6303 38.1226 35.6303 38.5866V45H33.0593ZM42.919 49.0909C42.5687 49.0909 42.2443 49.0625 41.946 49.0057C41.6525 48.9536 41.4181 48.892 41.2429 48.821L41.8395 46.8182C42.2135 46.9271 42.5473 46.9792 42.8409 46.9744C43.1345 46.9697 43.3925 46.8774 43.6151 46.6974C43.8423 46.5223 44.0341 46.2287 44.1903 45.8168L44.4105 45.2273L40.4545 34.0909H43.1818L45.696 42.3295H45.8097L48.331 34.0909H51.0653L46.6974 46.321C46.4938 46.8987 46.224 47.3935 45.8878 47.8054C45.5516 48.2221 45.1397 48.5393 44.652 48.7571C44.169 48.9796 43.5914 49.0909 42.919 49.0909ZM61.4666 36.9744L59.1229 37.2301C59.0566 36.9934 58.9406 36.7708 58.7749 36.5625C58.6139 36.3542 58.3961 36.1861 58.1214 36.0582C57.8468 35.9304 57.5107 35.8665 57.1129 35.8665C56.5779 35.8665 56.1281 35.9825 55.7635 36.2145C55.4036 36.4465 55.2261 36.7472 55.2308 37.1165C55.2261 37.4337 55.3421 37.6918 55.5788 37.8906C55.8203 38.0895 56.218 38.2528 56.772 38.3807L58.6328 38.7784C59.665 39.0009 60.4321 39.3537 60.9339 39.8366C61.4406 40.3196 61.6963 40.9517 61.701 41.733C61.6963 42.4195 61.495 43.0256 61.0973 43.5511C60.7043 44.072 60.1574 44.4792 59.4567 44.7727C58.7559 45.0663 57.951 45.2131 57.0419 45.2131C55.7067 45.2131 54.6319 44.9337 53.8175 44.375C53.0031 43.8116 52.5178 43.0279 52.3615 42.0241L54.8686 41.7827C54.9822 42.2751 55.2237 42.6468 55.593 42.8977C55.9624 43.1487 56.4429 43.2741 57.0348 43.2741C57.6456 43.2741 58.1357 43.1487 58.505 42.8977C58.879 42.6468 59.0661 42.3366 59.0661 41.9673C59.0661 41.6548 58.9453 41.3968 58.7038 41.1932C58.4671 40.9896 58.0978 40.8333 57.5959 40.7244L55.7351 40.3338C54.6887 40.116 53.9145 39.7491 53.4126 39.233C52.9107 38.7121 52.6622 38.054 52.6669 37.2585C52.6622 36.5862 52.8445 36.0038 53.2138 35.5114C53.5878 35.0142 54.1063 34.6307 54.7692 34.3608C55.4368 34.0862 56.2062 33.9489 57.0774 33.9489C58.3558 33.9489 59.362 34.2211 60.0959 34.7656C60.8345 35.3101 61.2914 36.0464 61.4666 36.9744ZM66.9602 45.2202C66.2689 45.2202 65.6463 45.0971 65.0923 44.8509C64.5431 44.5999 64.1075 44.2306 63.7855 43.7429C63.4683 43.2552 63.3097 42.6539 63.3097 41.9389C63.3097 41.3234 63.4233 40.8144 63.6506 40.4119C63.8778 40.0095 64.188 39.6875 64.581 39.446C64.974 39.2045 65.4167 39.0223 65.9091 38.8991C66.4063 38.7713 66.92 38.679 67.4503 38.6222C68.0895 38.5559 68.608 38.4967 69.0057 38.4446C69.4034 38.3878 69.6922 38.3026 69.8722 38.1889C70.0568 38.0705 70.1491 37.8883 70.1491 37.642V37.5994C70.1491 37.0644 69.9905 36.6501 69.6733 36.3565C69.3561 36.063 68.8991 35.9162 68.3026 35.9162C67.6728 35.9162 67.1733 36.0535 66.804 36.3281C66.4394 36.6027 66.1932 36.9271 66.0653 37.3011L63.6648 36.9602C63.8542 36.2973 64.1667 35.7434 64.6023 35.2983C65.0379 34.8485 65.5705 34.5123 66.2003 34.2898C66.83 34.0625 67.526 33.9489 68.2884 33.9489C68.8139 33.9489 69.3371 34.0104 69.858 34.1335C70.3788 34.2566 70.8546 34.4602 71.2855 34.7443C71.7164 35.0237 72.062 35.4048 72.3224 35.8878C72.5876 36.3707 72.7202 36.9744 72.7202 37.6989V45H70.2486V43.5014H70.1634C70.0071 43.8045 69.7869 44.0885 69.5028 44.3537C69.2235 44.6141 68.8707 44.8248 68.4446 44.9858C68.0232 45.142 67.5284 45.2202 66.9602 45.2202ZM67.6278 43.331C68.1439 43.331 68.5914 43.2292 68.9702 43.0256C69.349 42.8172 69.6402 42.5426 69.8438 42.2017C70.0521 41.8608 70.1562 41.4891 70.1562 41.0866V39.8011C70.0758 39.8674 69.9384 39.929 69.7443 39.9858C69.5549 40.0426 69.3419 40.0923 69.1051 40.1349C68.8684 40.1776 68.634 40.2154 68.402 40.2486C68.17 40.2817 67.9688 40.3101 67.7983 40.3338C67.4148 40.3859 67.0715 40.4711 66.7685 40.5895C66.4654 40.7079 66.2263 40.8736 66.0511 41.0866C65.8759 41.295 65.7884 41.5649 65.7884 41.8963C65.7884 42.3698 65.9612 42.7273 66.3068 42.9688C66.6525 43.2102 67.0928 43.331 67.6278 43.331ZM77.8764 30.4545V45H75.3054V30.4545H77.8764ZM80.5202 45V34.0909H83.0913V45H80.5202ZM81.8129 32.5426C81.4057 32.5426 81.0553 32.4077 80.7617 32.1378C80.4682 31.8632 80.3214 31.5341 80.3214 31.1506C80.3214 30.7623 80.4682 30.4332 80.7617 30.1634C81.0553 29.8887 81.4057 29.7514 81.8129 29.7514C82.2248 29.7514 82.5752 29.8887 82.864 30.1634C83.1576 30.4332 83.3043 30.7623 83.3043 31.1506C83.3043 31.5341 83.1576 31.8632 82.864 32.1378C82.5752 32.4077 82.2248 32.5426 81.8129 32.5426ZM94.3572 36.9744L92.0135 37.2301C91.9472 36.9934 91.8312 36.7708 91.6655 36.5625C91.5045 36.3542 91.2867 36.1861 91.0121 36.0582C90.7375 35.9304 90.4013 35.8665 90.0036 35.8665C89.4685 35.8665 89.0187 35.9825 88.6541 36.2145C88.2943 36.4465 88.1167 36.7472 88.1214 37.1165C88.1167 37.4337 88.2327 37.6918 88.4695 37.8906C88.7109 38.0895 89.1087 38.2528 89.6626 38.3807L91.5234 38.7784C92.5556 39.0009 93.3227 39.3537 93.8246 39.8366C94.3312 40.3196 94.5869 40.9517 94.5916 41.733C94.5869 42.4195 94.3857 43.0256 93.9879 43.5511C93.5949 44.072 93.0481 44.4792 92.3473 44.7727C91.6465 45.0663 90.8416 45.2131 89.9325 45.2131C88.5973 45.2131 87.5225 44.9337 86.7081 44.375C85.8937 43.8116 85.4084 43.0279 85.2521 42.0241L87.7592 41.7827C87.8729 42.2751 88.1143 42.6468 88.4837 42.8977C88.853 43.1487 89.3336 43.2741 89.9254 43.2741C90.5362 43.2741 91.0263 43.1487 91.3956 42.8977C91.7696 42.6468 91.9567 42.3366 91.9567 41.9673C91.9567 41.6548 91.8359 41.3968 91.5945 41.1932C91.3577 40.9896 90.9884 40.8333 90.4865 40.7244L88.6257 40.3338C87.5793 40.116 86.8052 39.7491 86.3033 39.233C85.8014 38.7121 85.5528 38.054 85.5575 37.2585C85.5528 36.5862 85.7351 36.0038 86.1044 35.5114C86.4785 35.0142 86.9969 34.6307 87.6598 34.3608C88.3274 34.0862 89.0968 33.9489 89.968 33.9489C91.2464 33.9489 92.2526 34.2211 92.9865 34.7656C93.7251 35.3101 94.1821 36.0464 94.3572 36.9744ZM7.67489 69V54.4545H10.3098V66.7912H16.7161V69H7.67489ZM23.6479 69.2131C22.5826 69.2131 21.6593 68.9787 20.878 68.5099C20.0968 68.0412 19.4907 67.3854 19.0598 66.5426C18.6337 65.6998 18.4206 64.715 18.4206 63.5881C18.4206 62.4612 18.6337 61.474 19.0598 60.6264C19.4907 59.7789 20.0968 59.1207 20.878 58.652C21.6593 58.1832 22.5826 57.9489 23.6479 57.9489C24.7132 57.9489 25.6365 58.1832 26.4178 58.652C27.199 59.1207 27.8027 59.7789 28.2289 60.6264C28.6597 61.474 28.8752 62.4612 28.8752 63.5881C28.8752 64.715 28.6597 65.6998 28.2289 66.5426C27.8027 67.3854 27.199 68.0412 26.4178 68.5099C25.6365 68.9787 24.7132 69.2131 23.6479 69.2131ZM23.6621 67.1534C24.2398 67.1534 24.7227 66.9948 25.111 66.6776C25.4992 66.3556 25.7881 65.9247 25.9775 65.3849C26.1716 64.8452 26.2686 64.2438 26.2686 63.581C26.2686 62.9134 26.1716 62.3097 25.9775 61.7699C25.7881 61.2254 25.4992 60.7921 25.111 60.4702C24.7227 60.1482 24.2398 59.9872 23.6621 59.9872C23.0703 59.9872 22.5778 60.1482 22.1848 60.4702C21.7966 60.7921 21.5054 61.2254 21.3113 61.7699C21.1219 62.3097 21.0272 62.9134 21.0272 63.581C21.0272 64.2438 21.1219 64.8452 21.3113 65.3849C21.5054 65.9247 21.7966 66.3556 22.1848 66.6776C22.5778 66.9948 23.0703 67.1534 23.6621 67.1534ZM35.8017 73.3182C34.8784 73.3182 34.0853 73.1927 33.4224 72.9418C32.7595 72.6955 32.2269 72.3641 31.8244 71.9474C31.4219 71.5308 31.1426 71.0691 30.9863 70.5625L33.3017 70.0014C33.4058 70.2145 33.5574 70.4252 33.7562 70.6335C33.9551 70.8466 34.2226 71.0218 34.5588 71.1591C34.8997 71.3011 35.3282 71.3722 35.8443 71.3722C36.5734 71.3722 37.1771 71.1946 37.6554 70.8395C38.1336 70.4891 38.3727 69.9115 38.3727 69.1065V67.0398H38.2449C38.1123 67.3049 37.9181 67.5772 37.6625 67.8565C37.4115 68.1359 37.0777 68.3703 36.661 68.5597C36.2491 68.7491 35.7306 68.8438 35.1056 68.8438C34.2676 68.8438 33.5076 68.6473 32.8258 68.2543C32.1487 67.8565 31.609 67.2647 31.2065 66.4787C30.8088 65.688 30.6099 64.6984 30.6099 63.5099C30.6099 62.312 30.8088 61.3011 31.2065 60.4773C31.609 59.6487 32.1511 59.0213 32.8329 58.5952C33.5147 58.1643 34.2747 57.9489 35.1127 57.9489C35.752 57.9489 36.2775 58.0578 36.6895 58.2756C37.1061 58.4886 37.4376 58.7467 37.6838 59.0497C37.93 59.348 38.117 59.6297 38.2449 59.8949H38.3869V58.0909H40.9224V69.1776C40.9224 70.1103 40.6999 70.8821 40.2548 71.4929C39.8097 72.1037 39.2013 72.5606 38.4295 72.8636C37.6577 73.1667 36.7818 73.3182 35.8017 73.3182ZM35.823 66.8267C36.3675 66.8267 36.8315 66.6941 37.215 66.429C37.5985 66.1638 37.8897 65.7827 38.0886 65.2855C38.2875 64.7884 38.3869 64.1918 38.3869 63.4957C38.3869 62.8092 38.2875 62.2079 38.0886 61.6918C37.8945 61.1757 37.6056 60.7756 37.2221 60.4915C36.8433 60.2027 36.377 60.0582 35.823 60.0582C35.2501 60.0582 34.7718 60.2074 34.3883 60.5057C34.0048 60.804 33.716 61.2135 33.5218 61.7344C33.3277 62.2505 33.2306 62.8376 33.2306 63.4957C33.2306 64.1634 33.3277 64.7481 33.5218 65.25C33.7207 65.7472 34.0119 66.1354 34.3954 66.4148C34.7837 66.6894 35.2595 66.8267 35.823 66.8267ZM43.5574 69V58.0909H46.1284V69H43.5574ZM44.85 56.5426C44.4428 56.5426 44.0924 56.4077 43.7988 56.1378C43.5053 55.8632 43.3585 55.5341 43.3585 55.1506C43.3585 54.7623 43.5053 54.4332 43.7988 54.1634C44.0924 53.8887 44.4428 53.7514 44.85 53.7514C45.2619 53.7514 45.6123 53.8887 45.9011 54.1634C46.1947 54.4332 46.3414 54.7623 46.3414 55.1506C46.3414 55.5341 46.1947 55.8632 45.9011 56.1378C45.6123 56.4077 45.2619 56.5426 44.85 56.5426ZM57.3944 60.9744L55.0506 61.2301C54.9843 60.9934 54.8683 60.7708 54.7026 60.5625C54.5416 60.3542 54.3238 60.1861 54.0492 60.0582C53.7746 59.9304 53.4384 59.8665 53.0407 59.8665C52.5056 59.8665 52.0558 59.9825 51.6912 60.2145C51.3314 60.4465 51.1538 60.7472 51.1586 61.1165C51.1538 61.4337 51.2698 61.6918 51.5066 61.8906C51.748 62.0895 52.1458 62.2528 52.6998 62.3807L54.5605 62.7784C55.5927 63.0009 56.3598 63.3537 56.8617 63.8366C57.3683 64.3196 57.624 64.9517 57.6287 65.733C57.624 66.4195 57.4228 67.0256 57.025 67.5511C56.632 68.072 56.0852 68.4792 55.3844 68.7727C54.6837 69.0663 53.8787 69.2131 52.9696 69.2131C51.6344 69.2131 50.5596 68.9337 49.7452 68.375C48.9308 67.8116 48.4455 67.0279 48.2892 66.0241L50.7963 65.7827C50.91 66.2751 51.1515 66.6468 51.5208 66.8977C51.8901 67.1487 52.3707 67.2741 52.9625 67.2741C53.5733 67.2741 54.0634 67.1487 54.4327 66.8977C54.8068 66.6468 54.9938 66.3366 54.9938 65.9673C54.9938 65.6548 54.873 65.3968 54.6316 65.1932C54.3948 64.9896 54.0255 64.8333 53.5236 64.7244L51.6628 64.3338C50.6164 64.116 49.8423 63.7491 49.3404 63.233C48.8385 62.7121 48.5899 62.054 48.5946 61.2585C48.5899 60.5862 48.7722 60.0038 49.1415 59.5114C49.5156 59.0142 50.034 58.6307 50.6969 58.3608C51.3645 58.0862 52.1339 57.9489 53.0051 57.9489C54.2836 57.9489 55.2897 58.2211 56.0236 58.7656C56.7623 59.3101 57.2192 60.0464 57.3944 60.9744ZM65.1962 58.0909V60.0795H58.9249V58.0909H65.1962ZM60.4732 55.4773H63.0442V65.7188C63.0442 66.0644 63.0963 66.3295 63.2005 66.5142C63.3094 66.6941 63.4514 66.8172 63.6266 66.8835C63.8018 66.9498 63.9959 66.983 64.209 66.983C64.37 66.983 64.5167 66.9711 64.6493 66.9474C64.7866 66.9238 64.8908 66.9025 64.9618 66.8835L65.3951 68.8935C65.2578 68.9408 65.0613 68.9929 64.8056 69.0497C64.5546 69.1065 64.2469 69.1397 63.8823 69.1491C63.2383 69.1681 62.6583 69.071 62.1422 68.858C61.6261 68.6402 61.2166 68.304 60.9135 67.8494C60.6152 67.3949 60.4685 66.8267 60.4732 66.1449V55.4773ZM67.3464 69V58.0909H69.9174V69H67.3464ZM68.639 56.5426C68.2318 56.5426 67.8815 56.4077 67.5879 56.1378C67.2943 55.8632 67.1475 55.5341 67.1475 55.1506C67.1475 54.7623 67.2943 54.4332 67.5879 54.1634C67.8815 53.8887 68.2318 53.7514 68.639 53.7514C69.051 53.7514 69.4013 53.8887 69.6902 54.1634C69.9837 54.4332 70.1305 54.7623 70.1305 55.1506C70.1305 55.5341 69.9837 55.8632 69.6902 56.1378C69.4013 56.4077 69.051 56.5426 68.639 56.5426ZM77.3198 69.2131C76.2308 69.2131 75.2956 68.974 74.5144 68.4957C73.7379 68.0175 73.1389 67.357 72.7175 66.5142C72.3008 65.6667 72.0925 64.6913 72.0925 63.5881C72.0925 62.4801 72.3056 61.5024 72.7317 60.6548C73.1578 59.8026 73.7592 59.1397 74.5357 58.6662C75.3169 58.188 76.2402 57.9489 77.3056 57.9489C78.191 57.9489 78.9746 58.1122 79.6564 58.4389C80.343 58.7609 80.8899 59.2178 81.2971 59.8097C81.7042 60.3968 81.9363 61.0833 81.9931 61.8693H79.5357C79.4363 61.3437 79.1995 60.9058 78.8255 60.5554C78.4561 60.2003 77.9614 60.0227 77.3411 60.0227C76.8155 60.0227 76.3539 60.1648 75.9561 60.4489C75.5584 60.7282 75.2483 61.1307 75.0257 61.6562C74.8079 62.1818 74.699 62.8116 74.699 63.5455C74.699 64.2888 74.8079 64.928 75.0257 65.4631C75.2435 65.9934 75.5489 66.4029 75.9419 66.6918C76.3397 66.9759 76.806 67.1179 77.3411 67.1179C77.7199 67.1179 78.0584 67.0469 78.3567 66.9048C78.6597 66.758 78.9131 66.5473 79.1167 66.2727C79.3203 65.9981 79.4599 65.6643 79.5357 65.2713H81.9931C81.9315 66.0431 81.7042 66.7273 81.3113 67.3239C80.9183 67.9157 80.3832 68.3797 79.7061 68.7159C79.0291 69.0473 78.2336 69.2131 77.3198 69.2131ZM92.7264 60.9744L90.3826 61.2301C90.3163 60.9934 90.2003 60.7708 90.0346 60.5625C89.8736 60.3542 89.6558 60.1861 89.3812 60.0582C89.1066 59.9304 88.7704 59.8665 88.3727 59.8665C87.8377 59.8665 87.3878 59.9825 87.0233 60.2145C86.6634 60.4465 86.4859 60.7472 86.4906 61.1165C86.4859 61.4337 86.6019 61.6918 86.8386 61.8906C87.0801 62.0895 87.4778 62.2528 88.0318 62.3807L89.8926 62.7784C90.9248 63.0009 91.6918 63.3537 92.1937 63.8366C92.7003 64.3196 92.956 64.9517 92.9608 65.733C92.956 66.4195 92.7548 67.0256 92.3571 67.5511C91.9641 68.072 91.4172 68.4792 90.7164 68.7727C90.0157 69.0663 89.2108 69.2131 88.3017 69.2131C86.9664 69.2131 85.8916 68.9337 85.0772 68.375C84.2628 67.8116 83.7775 67.0279 83.6213 66.0241L86.1284 65.7827C86.242 66.2751 86.4835 66.6468 86.8528 66.8977C87.2221 67.1487 87.7027 67.2741 88.2946 67.2741C88.9054 67.2741 89.3954 67.1487 89.7647 66.8977C90.1388 66.6468 90.3258 66.3366 90.3258 65.9673C90.3258 65.6548 90.2051 65.3968 89.9636 65.1932C89.7269 64.9896 89.3575 64.8333 88.8556 64.7244L86.9949 64.3338C85.9484 64.116 85.1743 63.7491 84.6724 63.233C84.1705 62.7121 83.9219 62.054 83.9267 61.2585C83.9219 60.5862 84.1042 60.0038 84.4735 59.5114C84.8476 59.0142 85.3661 58.6307 86.0289 58.3608C86.6966 58.0862 87.466 57.9489 88.3372 57.9489C89.6156 57.9489 90.6217 58.2211 91.3556 58.7656C92.0943 59.3101 92.5512 60.0464 92.7264 60.9744Z" fill="#9999FF"/>
</svg>
